<?xml version="1.0" encoding="UTF-8"?>
<svg width="1440px" height="1024px" viewBox="0 0 1440 1024" version="1.1" xmlns="http://www.w3.org/2000/svg" xmlns:xlink="http://www.w3.org/1999/xlink">
    <!-- Generator: Sketch 54.1 (76490) - https://sketchapp.com -->
    <title>Fondo</title>
    <desc>Created with Sketch.</desc>
    <defs>
        <linearGradient x1="50%" y1="0%" x2="50%" y2="59.3897001%" id="linearGradient-1">
            <stop stop-color="#000000" offset="0%"></stop>
            <stop stop-color="#172F4F" offset="100%"></stop>
        </linearGradient>
    </defs>
    <g id="High-/-Desktop-/-Pre" stroke="none" stroke-width="1" fill="none" fill-rule="evenodd">
        <g id="1-Inicio">
            <g id="Fondo">
                <rect id="fondo-inf" fill="#000000" x="0" y="0" width="1440" height="1024"></rect>
                <g id="DECOR" transform="translate(124.000000, 344.000000)" fill="#172F4F">
                    <circle id="Oval" cx="50.5" cy="458.5" r="50.5"></circle>
                    <circle id="Oval-Copy" cx="154.5" cy="433.5" r="25.5"></circle>
                    <circle id="Oval-Copy-2" cx="129.5" cy="487.5" r="12.5"></circle>
                    <ellipse id="Oval-Copy" transform="translate(45.664125, 35.588020) scale(1, -1) rotate(-330.000000) translate(-45.664125, -35.588020) " cx="45.6641254" cy="35.5880196" rx="25.3702778" ry="25.3856406"></ellipse>
                    <ellipse id="Oval-Copy-2" transform="translate(51.332063, 90.334874) scale(1, -1) rotate(-330.000000) translate(-51.332063, -90.334874) " cx="51.3320627" cy="90.3348743" rx="12.6851389" ry="12.6928203"></ellipse>
                    <circle id="Oval" transform="translate(1173.500000, 244.500000) scale(-1, 1) translate(-1173.500000, -244.500000) " cx="1173.5" cy="244.5" r="50.5"></circle>
                    <circle id="Oval-Copy" transform="translate(1069.500000, 219.500000) scale(-1, 1) translate(-1069.500000, -219.500000) " cx="1069.5" cy="219.5" r="25.5"></circle>
                    <circle id="Oval-Copy-2" transform="translate(1094.500000, 273.500000) scale(-1, 1) translate(-1094.500000, -273.500000) " cx="1094.5" cy="273.5" r="12.5"></circle>
                </g>
                <rect id="fondo-sup" fill-opacity="0.88" fill="url(#linearGradient-1)" x="0" y="0" width="1440" height="1024"></rect>
            </g>
        </g>
    </g>
</svg>