<?xml version="1.0" encoding="UTF-8"?>
<svg width="850px" height="536px" viewBox="0 0 850 536" version="1.1" xmlns="http://www.w3.org/2000/svg" xmlns:xlink="http://www.w3.org/1999/xlink">
    <!-- Generator: Sketch 54.1 (76490) - https://sketchapp.com -->
    <title>Pista</title>
    <desc>Created with Sketch.</desc>
    <defs>
        <path d="M383.272496,294.136228 L658.369598,290 L1046.63409,291.955097 C1067.05095,291.550303 1081.45572,293.086688 1089.84841,296.564253 C1102.43745,301.7806 1092.13694,340.564799 1097.40767,346.177502 C1102.67839,351.790205 1114.1645,355.132993 1116.99997,360.595619 C1119.83544,366.058245 1116.08882,413.584431 1108.82472,433.739422 C1101.56062,453.894412 1017.74115,645.093051 1014.40916,651.904393 C1011.07716,658.715736 977.001019,714.492759 980.117937,718.027911 C983.234855,721.563062 1011.1257,728.066492 1014.40916,736.827022 C1017.69261,745.587551 1013.25425,749.685696 1005.02476,757.912718 C996.795274,766.139741 967.146116,796.958457 961.559082,797.885135 C955.972049,798.811813 942.148557,794.035768 939.887831,787.016674 C938.38068,782.337278 937.846543,732.785716 938.285422,638.361988 C938.401874,625.404603 937.575701,617.214016 935.806903,613.790227 C933.153706,608.654544 899.285755,596.585384 891.22469,590.443467 C883.163625,584.301551 871.653985,554.881121 856.26261,546.994533 C840.871235,539.107945 773.027754,545.608215 759.335721,538.477153 C745.643688,531.346091 734.692192,501.098609 729.067329,496.557181 C723.442465,492.015753 646.759626,460.826392 631.726616,460.826392 C621.704609,460.826392 561.267945,459.846952 450.416623,457.888071 C437.308628,458.073754 427.710891,456.219054 421.623413,452.323972 C415.535935,448.42889 408.255885,422.705472 399.783263,375.153718 C398.243819,368.691974 395.687902,364.650189 392.115512,363.028361 C386.756926,360.595619 385.511809,380.086355 373.215074,383.801778 C360.91834,387.517202 354.447776,379.712155 348.782438,379.712155 C343.1171,379.712155 307.669061,382.952387 299.962966,375.153718 C292.256871,367.355049 301.278381,337.995228 305.397175,331.235177 C309.515968,324.475126 320.848775,308.917121 334.021032,302.692856 C347.193289,296.468591 355.434648,294.982821 359.90706,294.982821 C362.888667,294.982821 370.677146,294.700623 383.272496,294.136228 Z" id="path-1"></path>
        <filter x="-2.5%" y="-3.6%" width="104.9%" height="108.0%" filterUnits="objectBoundingBox" id="filter-2">
            <feMorphology radius="4.25" operator="dilate" in="SourceAlpha" result="shadowSpreadOuter1"></feMorphology>
            <feOffset dx="0" dy="2" in="shadowSpreadOuter1" result="shadowOffsetOuter1"></feOffset>
            <feMorphology radius="4.25" operator="erode" in="SourceAlpha" result="shadowInner"></feMorphology>
            <feOffset dx="0" dy="2" in="shadowInner" result="shadowInner"></feOffset>
            <feComposite in="shadowOffsetOuter1" in2="shadowInner" operator="out" result="shadowOffsetOuter1"></feComposite>
            <feGaussianBlur stdDeviation="5" in="shadowOffsetOuter1" result="shadowBlurOuter1"></feGaussianBlur>
            <feColorMatrix values="0 0 0 0 1   0 0 0 0 1   0 0 0 0 1  0 0 0 0.5 0" type="matrix" in="shadowBlurOuter1"></feColorMatrix>
        </filter>
    </defs>
    <g id="High-/-Desktop-/-Pre" stroke="none" stroke-width="1" fill="none" fill-rule="evenodd">
        <g id="2-Beer-Garden" transform="translate(-282.000000, -278.000000)">
            <g id="Pista">
                <use fill="black" fill-opacity="1" filter="url(#filter-2)" xlink:href="#path-1"></use>
                <use stroke="#000000" stroke-width="8.5" xlink:href="#path-1"></use>
            </g>
        </g>
    </g>
</svg>